# xmcd
#
# Track frame offsets:
#	150
#	13457
#	25263
#	44779
#	59023
#	78685
#	96190
#	109616
#	124572
#	143905
#	162295
#	179332
#	195939
#
# Disc length: 2872 seconds
#
# Revision: 0
# Processed by: cddbd v1.5.2PL0 Copyright (c) Steve Scherf et al.
# Submitted via: dBpowerAMP V4.0
#
DISCID=b60b360d
DTITLE=Lindsay Jane - Lovers Find Reasons 
DYEAR=2007
DGENRE=Roots
TTITLE0=Gasoline Stain 
TTITLE1=The First Day After Summer
TTITLE2=I Am No Dancer
TTITLE3=I Can't Rescue You
TTITLE4=St.Pierre
TTITLE5=I Have Lived 
TTITLE6=Oh My Dear!
TTITLE7=Be There
TTITLE8=The Last Walk
TTITLE9=Basement Window
TTITLE10=Waiting
TTITLE11=Sault City
TTITLE12=To Let Lovers Go
EXTD=
EXTT0=
EXTT1=
EXTT2=
EXTT3=
EXTT4=
EXTT5=
EXTT6=
EXTT7=
EXTT8=
EXTT9=
EXTT10=
EXTT11=
EXTT12=
PLAYORDER=
